<svg id="Layer_1" data-name="Layer 1" xmlns="http://www.w3.org/2000/svg" viewBox="0 0 400 397.57"><defs><style>.cls-1{fill:#fff;}</style></defs><path d="M400,200C400,89.54,310.46,0,200,0S0,89.54,0,200c0,99.82,73.14,182.57,168.75,197.57V257.81H118V200h50.78V155.94c0-50.13,29.86-77.82,75.54-77.82,21.88,0,44.77,3.91,44.77,3.91v49.22H263.84c-24.84,0-32.59,15.42-32.59,31.25V200h55.47l-8.87,57.81h-46.6V397.57C326.86,382.57,400,299.82,400,200Z"/><path class="cls-1" d="M277.85,257.81,286.72,200H231.25V162.5c0-15.82,7.75-31.25,32.59-31.25h25.22V82s-22.88-3.91-44.77-3.91c-45.68,0-75.54,27.69-75.54,77.82V200H118v57.81h50.78V397.57a202.15,202.15,0,0,0,62.5,0V257.81Z"/></svg>