<svg xmlns="http://www.w3.org/2000/svg" width="25" height="25" viewBox="0 0 25 25">
  <g id="instagram" transform="translate(0 0)">
    <path id="Pfad_506" data-name="Pfad 506" d="M17.552,0H7.448A7.456,7.456,0,0,0,0,7.447v10.1A7.456,7.456,0,0,0,7.448,25h10.1A7.456,7.456,0,0,0,25,17.552V7.447A7.456,7.456,0,0,0,17.552,0Zm4.933,17.552a4.933,4.933,0,0,1-4.932,4.933H7.448a4.933,4.933,0,0,1-4.932-4.932V7.447A4.932,4.932,0,0,1,7.448,2.515h10.1a4.932,4.932,0,0,1,4.933,4.933Z" transform="translate(0 0)" fill="#fff"/>
    <path id="Pfad_507" data-name="Pfad 507" d="M103.016,96.55a6.466,6.466,0,1,0,6.466,6.466A6.466,6.466,0,0,0,103.016,96.55Zm0,10.416a3.951,3.951,0,1,1,3.951-3.951A3.951,3.951,0,0,1,103.016,106.966Z" transform="translate(-90.516 -90.516)" fill="#fff"/>
    <ellipse id="Ellipse_22" data-name="Ellipse 22" cx="1.549" cy="1.549" rx="1.549" ry="1.549" transform="translate(17.429 4.533)" fill="#fff"/>
  </g>
</svg>
