<svg id="Layer_1" data-name="Layer 1" xmlns="http://www.w3.org/2000/svg" viewBox="0 0 400 400"><path d="M280.84,0H119.16A119.3,119.3,0,0,0,0,119.16V280.84A119.3,119.3,0,0,0,119.16,400H280.84A119.3,119.3,0,0,0,400,280.84V119.16A119.3,119.3,0,0,0,280.84,0Zm78.92,280.84a78.93,78.93,0,0,1-78.92,78.92H119.16a78.93,78.93,0,0,1-78.92-78.92V119.16a78.92,78.92,0,0,1,78.92-78.92H280.84a78.92,78.92,0,0,1,78.92,78.92V280.84Z"/><path d="M200,96.55A103.45,103.45,0,1,0,303.45,200,103.57,103.57,0,0,0,200,96.55Zm0,166.66A63.21,63.21,0,1,1,263.21,200,63.21,63.21,0,0,1,200,263.21Z"/><circle cx="303.65" cy="97.32" r="24.79"/></svg>