<svg id="Layer_1" data-name="Layer 1" xmlns="http://www.w3.org/2000/svg" viewBox="0 0 400 400"><path d="M399.92,205.86C403.18,91.73,310.8-1.63,197,0,87.52,1.61-.83,92.05,0,201.56A200,200,0,0,0,112.65,380a5.65,5.65,0,0,0,8.11-5.3c-.49-12.86-.07-26.62,2.5-37.68,2.54-10.89,12.48-53,19-80.65a98.8,98.8,0,0,0,1-41,84.09,84.09,0,0,1-1.45-15.53c0-29.56,17.14-51.63,38.47-51.63,18.14,0,26.9,13.62,26.9,29.94,0,18.24-11.61,45.51-17.61,70.79-5,21.16,10.61,38.41,31.48,38.41,37.79,0,66.83-39.84,66.83-97.35,0-50.9-36.57-86.49-88.8-86.49-60.49,0-96,45.37-96,92.26,0,18.27,7,37.86,15.82,48.52a6.33,6.33,0,0,1,1.47,6.09c-1.61,6.72-5.2,21.16-5.9,24.11-.93,3.89-3.08,4.72-7.11,2.85-26.55-12.36-43.15-51.18-43.15-82.36C64.24,127.83,113,66.24,204.7,66.24c73.75,0,131.06,52.55,131.06,122.78,0,73.27-46.19,132.23-110.31,132.23-16.95,0-33.09-6.92-42.59-16.31a5.31,5.31,0,0,0-8.89,2.4c-3.35,12.74-8.75,33.34-10.49,40-3.14,12.05-9.74,26.09-16.36,38.32a5.65,5.65,0,0,0,3.6,8.17A200.75,200.75,0,0,0,201.89,400C306.84,399,396.92,310.77,399.92,205.86Z"/></svg>