<svg xmlns="http://www.w3.org/2000/svg" width="25" height="25.001" viewBox="0 0 25 25.001">
  <path id="pinterest" d="M24.989,12.846A12.5,12.5,0,1,0,7.035,23.73a.353.353,0,0,0,.507-.331A9.392,9.392,0,0,1,7.7,21.044c.159-.681.78-3.312,1.187-5.041a6.175,6.175,0,0,0,.062-2.562,5.255,5.255,0,0,1-.091-.971c0-1.847,1.071-3.227,2.4-3.227a1.669,1.669,0,0,1,1.681,1.871c0,1.14-.726,2.844-1.1,4.424a1.929,1.929,0,0,0,1.967,2.4c2.362,0,4.177-2.49,4.177-6.084a5.245,5.245,0,0,0-5.55-5.405,5.751,5.751,0,0,0-6,5.766,5.155,5.155,0,0,0,.989,3.032.4.4,0,0,1,.092.381c-.1.42-.325,1.322-.369,1.507-.058.243-.192.295-.444.178-1.659-.772-2.7-3.2-2.7-5.147,0-4.2,3.049-8.046,8.78-8.046,4.609,0,8.191,3.284,8.191,7.674,0,4.579-2.887,8.264-6.894,8.264a3.911,3.911,0,0,1-2.662-1.019.332.332,0,0,0-.556.15c-.209.8-.547,2.084-.656,2.5a11.583,11.583,0,0,1-1.022,2.395.353.353,0,0,0,.225.511,12.547,12.547,0,0,0,3.2.386A12.712,12.712,0,0,0,24.989,12.846Z" transform="translate(0.006 0.021)" fill="#fff"/>
</svg>
