<svg xmlns="http://www.w3.org/2000/svg" xmlns:xlink="http://www.w3.org/1999/xlink" width="329.022" height="57.214" viewBox="0 0 329.022 57.214">
  <defs>
    <linearGradient id="linear-gradient" x1="1" y1="0.499" x2="0" y2="0.499" gradientUnits="objectBoundingBox">
      <stop offset="0" stop-color="#d96a48"/>
      <stop offset="0.25" stop-color="#d62d31"/>
      <stop offset="0.75" stop-color="#9bb6d9"/>
      <stop offset="1" stop-color="#2b5d6d"/>
    </linearGradient>
    <linearGradient id="linear-gradient-2" x1="1" y1="0.5" x2="0" y2="0.5" gradientUnits="objectBoundingBox">
      <stop offset="0" stop-color="#921917"/>
      <stop offset="0.25" stop-color="#d62d31"/>
      <stop offset="0.75" stop-color="#9bb6d9"/>
      <stop offset="1" stop-color="#2b5d6d"/>
    </linearGradient>
  </defs>
  <g id="LUPCOM_Logo_Standard" transform="translate(-0.544 0.011)">
    <path id="Pfad_390" data-name="Pfad 390" d="M92.452,3.528a12.711,12.711,0,0,1,.463,4.029V30.319a29.289,29.289,0,0,1-6.2,18.129,22.621,22.621,0,0,1-7.8,6.245,23.286,23.286,0,0,1-10.555,2.4,22.46,22.46,0,0,1-10.515-2.417,21.655,21.655,0,0,1-7.675-6.325,29.108,29.108,0,0,1-6.144-18.13V7.4a21.213,21.213,0,0,1,.121-2.679A6.3,6.3,0,0,1,44.873,2.7a3.324,3.324,0,0,1,2.014-1.591A13.315,13.315,0,0,1,50.775.667a13.174,13.174,0,0,1,3.847.443A3.082,3.082,0,0,1,56.637,2.7a10.5,10.5,0,0,1,.906,4.774V30.219a17.827,17.827,0,0,0,2.317,8.722A8.279,8.279,0,0,0,63.183,42.3a10.616,10.616,0,0,0,5.358,1.289A9.286,9.286,0,0,0,76.8,39.565a16.619,16.619,0,0,0,2.719-9.447V6.932a8.339,8.339,0,0,1,.745-4.15,4.029,4.029,0,0,1,2.2-1.672A12.227,12.227,0,0,1,86.047.667a13.235,13.235,0,0,1,3.445.363,5.882,5.882,0,0,1,2.014.927,2.84,2.84,0,0,1,.947,1.571Zm223.6,29.027a14.445,14.445,0,0,0,.383,3.928,3.284,3.284,0,0,0,1.048,1.511,5.64,5.64,0,0,0,2.014.906,15.531,15.531,0,0,0,7.111,0c2.014-.6,2.881-2.659,2.881-6.144V7.6a18.872,18.872,0,0,0-.1-2.639,6.042,6.042,0,0,0-.725-2.014Q327.612.929,322.8.929t-6.043,2.014q-4.291,5.439-17.163,22.46L282.369,2.783l-.443-.463a4.613,4.613,0,0,0-2.014-1.007,10.777,10.777,0,0,0-3.445-.5c-3.183,0-5.137.665-5.9,2.014a5.681,5.681,0,0,0-.705,2.014,20.769,20.769,0,0,0-.121,2.619V49.4a22.4,22.4,0,0,0,.121,2.719,5.016,5.016,0,0,0,.7,2.014c.766,1.37,2.679,2.014,5.761,2.014s5.137-.685,5.9-2.014a5.1,5.1,0,0,0,.705-1.914,20.769,20.769,0,0,0,.121-2.619V24.034c.242.3,1.873,2.518,4.835,6.627s4.976,6.788,6.043,8.058l.6.826A6.768,6.768,0,0,0,296.55,41.1a6.224,6.224,0,0,0,6.265,0,6.829,6.829,0,0,0,1.853-1.35l1.37-1.773c.665-.866,2.2-3,4.613-6.406s4.271-5.882,5.519-7.453ZM7.3,13.419c4.21,0,6.849-.886,6.708-6.708h0a16.3,16.3,0,0,0-.2-2.679C13.347,1.292,11.716,0,7.3,0h0C1.442-.138.637,2.521.6,6.711h0C.455,12.532,3.114,13.4,7.3,13.419Zm136.978-1.491a20.144,20.144,0,0,1,2.014,8.944,19.822,19.822,0,0,1-2.014,8.883,17.3,17.3,0,0,1-5.076,6.305,20.99,20.99,0,0,1-13.013,4.855h-9.548v8.541a20.767,20.767,0,0,1-.121,2.619,6.043,6.043,0,0,1-.725,2.014c-.705,1.37-2.659,2.014-5.9,2.014s-5.6-.927-6.2-2.8a12.771,12.771,0,0,1-.443-3.928V7.4a20.766,20.766,0,0,1,.121-2.619,5.68,5.68,0,0,1,.705-2.014c.705-1.37,2.679-2.014,5.9-2.014h16.115A21.03,21.03,0,0,1,139.025,5.6a17.284,17.284,0,0,1,5.157,6.325Zm-11.361,8.944a6.043,6.043,0,0,0-2.176-5.036,7.292,7.292,0,0,0-4.653-1.732h-9.447V27.5h9.528a7.272,7.272,0,0,0,4.472-1.672,5.862,5.862,0,0,0,2.176-4.955Zm-94.676,24.7A8.581,8.581,0,0,0,34.619,45H13.891V24.7a15.612,15.612,0,0,0-.383-4.029c-.584-1.773-2.679-2.719-6.2-2.719s-5.2.685-5.9,2.014A6.225,6.225,0,0,0,.677,21.98c0,.584-.1,1.45-.1,2.619V49.436A11.885,11.885,0,0,0,1.039,53.3c.6,2.014,2.659,2.881,6.2,2.881H34.4a8.44,8.44,0,0,0,3.928-.765,2.6,2.6,0,0,0,1.289-1.672,10.7,10.7,0,0,0,.383-3.2,10.737,10.737,0,0,0-.282-3.2A2.82,2.82,0,0,0,38.1,45.568ZM253.362,8.161A26.973,26.973,0,0,1,261.6,28.3a28.886,28.886,0,0,1-7.856,20.426,25.482,25.482,0,0,1-19.378,8.44,26.187,26.187,0,0,1-19.56-8.34,27.537,27.537,0,0,1-8.058-19.822,30.6,30.6,0,0,1,2.276-11.764,27.416,27.416,0,0,1,6.043-9.186,28.322,28.322,0,0,1,8.7-5.822A25.482,25.482,0,0,1,233.842.224a26.852,26.852,0,0,1,19.519,7.937Zm-5.157,20.486a14.584,14.584,0,0,0-4.351-11.039,13.315,13.315,0,0,0-19.4,0,14.564,14.564,0,0,0-4.311,10.938A14.483,14.483,0,0,0,224.5,39.465a13.416,13.416,0,0,0,19.4.121A14.383,14.383,0,0,0,248.205,28.647Zm74.532,15.047h0c-5.822-.141-6.688,2.5-6.708,6.688h0c-.141,5.842,2.518,6.708,6.708,6.728s6.849-.906,6.708-6.728h0a18.732,18.732,0,0,0-.222-2.619c-.383-2.78-2.034-4.109-6.426-4.069ZM172.363,17a16.5,16.5,0,0,1,9.689-3.4,13.154,13.154,0,0,1,8.481,2.518,7.9,7.9,0,0,0,3.847,1.652c1.571,0,3.324-1.35,5.3-4.029a7.151,7.151,0,0,0,1.591-4.19,4.573,4.573,0,0,0-2.014-3.586c-.5-.363-1.209-.806-2.014-1.37l-1.813-1.068a26.066,26.066,0,0,0-5.62-2.216A24.757,24.757,0,0,0,182.576.2,30.7,30.7,0,0,0,167.67,4.233a28.544,28.544,0,0,0-6.99,5.258,24.173,24.173,0,0,0-5.036,7.937,28.2,28.2,0,0,0-2.014,10.717,29.511,29.511,0,0,0,2.014,10.938,25.16,25.16,0,0,0,5.1,8.239,31.162,31.162,0,0,0,7.01,5.439,30.336,30.336,0,0,0,7.574,3.183,29.148,29.148,0,0,0,7.252.947,24.918,24.918,0,0,0,7.453-1.209,27.779,27.779,0,0,0,5.117-2.014l2.6-1.571a11.844,11.844,0,0,0,2.417-1.732,3.666,3.666,0,0,0,1.027-2.659,8.743,8.743,0,0,0-1.652-4.23c-1.833-2.82-3.525-4.25-5.076-4.25a9.145,9.145,0,0,0-3.626,1.531l-1.37.967a12.389,12.389,0,0,1-2.981,1.229,15.813,15.813,0,0,1-4.432.6,16.115,16.115,0,0,1-9.609-3.344,12.892,12.892,0,0,1-3.807-4.814,15.148,15.148,0,0,1-1.511-6.849,15.088,15.088,0,0,1,1.511-6.849A12.771,12.771,0,0,1,172.363,17Z" transform="translate(0.02 0.008)" fill="url(#linear-gradient)"/>
    <path id="Pfad_391" data-name="Pfad 391" d="M160.311,10.083l.383-.423a28.544,28.544,0,0,1,6.99-5.258A30.7,30.7,0,0,1,182.59.373a24.757,24.757,0,0,1,7.232,1.108,26.066,26.066,0,0,1,5.56,2.216l1.813,1.068a16.537,16.537,0,0,1,2.014,1.37,6.265,6.265,0,0,1,.745.705c-3.445-.322-6.95-.5-10.475-.5a114.1,114.1,0,0,0-29.168,3.747Zm-43.652,6.043V14.112h9.447a7.292,7.292,0,0,1,4.552,1.712,6.043,6.043,0,0,1,2.176,5.036,3.627,3.627,0,0,1,0,.443,113.872,113.872,0,0,1,12.57-6.224,19.177,19.177,0,0,0-1.168-3.163A17.283,17.283,0,0,0,139.16,5.57,21.03,21.03,0,0,0,126.187.736H110.072c-3.223,0-5.2.685-5.9,2.014a5.68,5.68,0,0,0-.705,2.014,20.77,20.77,0,0,0-.121,2.619v5.681a134.156,134.156,0,0,1,13.315,2.921ZM81.367,11.251c3.888,0,7.735.2,11.563.524V7.484a12.711,12.711,0,0,0-.463-4.029,2.84,2.84,0,0,0-.987-1.43A5.882,5.882,0,0,0,89.465,1.1a13.235,13.235,0,0,0-3.4-.423,12.227,12.227,0,0,0-3.606.443,4.029,4.029,0,0,0-2.2,1.672,8.339,8.339,0,0,0-.745,4.15v4.351ZM230.835,13.89a12.973,12.973,0,0,1,3.324-.443,13.7,13.7,0,0,1,9.709,4.17,13.417,13.417,0,0,1,2.84,3.908A114.238,114.238,0,0,1,261.434,31.6a31.293,31.293,0,0,0,.181-3.4,26.973,26.973,0,0,0-8.239-20.144A26.852,26.852,0,0,0,233.937-.009a25.482,25.482,0,0,0-10.072,2.115,28.323,28.323,0,0,0-8.783,5.963c-.282.282-.524.584-.806.886a113.977,113.977,0,0,1,16.558,4.935ZM322.812,43.7h0c-5.822-.141-6.688,2.5-6.708,6.688h0c-.141,5.842,2.518,6.708,6.708,6.728s6.849-.906,6.708-6.728h0a18.736,18.736,0,0,0-.222-2.619C328.855,44.992,327.2,43.663,322.812,43.7ZM13.966,29.36V24.707a15.612,15.612,0,0,0-.383-4.029c-.645-1.773-2.74-2.719-6.265-2.719s-5.2.685-5.9,2.014a6.225,6.225,0,0,0-.725,2.014c0,.584-.1,1.45-.1,2.619L.55,38.284A132.769,132.769,0,0,1,13.966,29.36Zm302.158,3.2a14.442,14.442,0,0,0,.383,3.928A3.283,3.283,0,0,0,317.554,38a5.64,5.64,0,0,0,2.014.906,15.531,15.531,0,0,0,7.111,0c2.014-.6,2.881-2.659,2.881-6.144V7.605a18.872,18.872,0,0,0-.1-2.639,6.044,6.044,0,0,0-.725-2.014Q327.687.937,322.872.937t-6.043,2.014q-4.291,5.439-17.163,22.46L282.383,2.791l-.443-.463a4.613,4.613,0,0,0-2.014-1.007,10.777,10.777,0,0,0-3.445-.5c-3.183,0-5.137.665-5.9,2.014a5.68,5.68,0,0,0-.705,2.014,20.769,20.769,0,0,0-.121,2.619V39.11a115.846,115.846,0,0,1,12.59,14.745,5.078,5.078,0,0,0,.6-1.692,20.763,20.763,0,0,0,.121-2.619v-25.5c.242.3,1.873,2.518,4.835,6.627s4.976,6.788,6.043,8.058l.6.826a6.768,6.768,0,0,0,2.014,1.551,6.224,6.224,0,0,0,6.265,0,6.829,6.829,0,0,0,1.853-1.35l1.37-1.773c.665-.866,2.2-3,4.613-6.406s4.271-5.882,5.519-7.453ZM7.318,13.427c4.21,0,6.849-.886,6.708-6.708h0a16.3,16.3,0,0,0-.2-2.679C13.362,1.3,11.73.011,7.318.011h0C1.456-.13.651,2.529.61,6.719h0C.469,12.54,3.128,13.406,7.318,13.427Zm50.2,0V7.484A10.5,10.5,0,0,0,56.61,2.71,3.082,3.082,0,0,0,54.6,1.119,13.174,13.174,0,0,0,50.789.676a13.315,13.315,0,0,0-3.868.443A3.324,3.324,0,0,0,44.907,2.71a6.305,6.305,0,0,0-.725,2.014A21.211,21.211,0,0,0,44.061,7.4v9.125a130.94,130.94,0,0,1,13.456-3.122Z" transform="translate(0.006 0)" fill="url(#linear-gradient-2)"/>
    <path id="Pfad_392" data-name="Pfad 392" d="M57.523,7.715v16.82a17.827,17.827,0,0,0,2.357,8.722A8.279,8.279,0,0,0,63.2,36.622a10.616,10.616,0,0,0,5.358,1.289,9.266,9.266,0,0,0,8.259-4.029,16.619,16.619,0,0,0,2.719-9.447V5.6h1.833c3.888,0,7.735.2,11.563.524V24.676a29.289,29.289,0,0,1-6.2,18.13,22.621,22.621,0,0,1-7.8,6.245,23.286,23.286,0,0,1-10.555,2.4A22.46,22.46,0,0,1,57.866,48.99a21.655,21.655,0,0,1-7.675-6.325,29.108,29.108,0,0,1-6.144-18.13v-13.7A130.937,130.937,0,0,1,57.523,7.715ZM7.184,50.521H34.418a8.44,8.44,0,0,0,3.928-.765,2.6,2.6,0,0,0,1.289-1.672,10.7,10.7,0,0,0,.383-3.2,10.737,10.737,0,0,0-.282-3.223,2.82,2.82,0,0,0-1.511-1.773,8.581,8.581,0,0,0-3.626-.564H13.912V23.669A132.767,132.767,0,0,0,.556,32.593V43.873a11.885,11.885,0,0,0,.463,3.868C1.584,49.554,3.638,50.521,7.184,50.521ZM103.27,7.373V40.006a114.4,114.4,0,0,1,19.9-18.13h-6.507V10.294a134.161,134.161,0,0,0-13.4-2.921Z" transform="translate(0 5.691)" fill="#fff" opacity="0.25"/>
    <path id="Pfad_393" data-name="Pfad 393" d="M215.748,50.741a2.354,2.354,0,0,1-.1.222c-.765,1.37-2.74,2.014-5.9,2.014s-5-.685-5.761-2.014a5.016,5.016,0,0,1-.705-2.014,22.406,22.406,0,0,1-.121-2.719V36A115.85,115.85,0,0,1,215.748,50.741ZM79.555,17.765a21.433,21.433,0,0,0-.786-5.781A113.874,113.874,0,0,0,66.2,18.208v.121a136.48,136.48,0,0,1,12.368,5.9A20.91,20.91,0,0,0,79.555,17.765Zm54.389,28.927a3.706,3.706,0,0,0,.624-2.155,8.742,8.742,0,0,0-1.652-4.23c-1.833-2.82-3.525-4.25-5.076-4.25a9.145,9.145,0,0,0-3.626,1.531l-1.37.967a12.389,12.389,0,0,1-2.981,1.229,15.813,15.813,0,0,1-4.432.6,16.115,16.115,0,0,1-9.609-3.344,12.892,12.892,0,0,1-3.767-4.754,15.149,15.149,0,0,1-1.511-6.849,15.088,15.088,0,0,1,1.511-6.849,12.771,12.771,0,0,1,3.787-4.694,16.5,16.5,0,0,1,9.689-3.4,13.154,13.154,0,0,1,8.42,2.518,7.9,7.9,0,0,0,3.847,1.652c1.571,0,3.324-1.35,5.3-4.029a7.151,7.151,0,0,0,1.591-4.19,4.17,4.17,0,0,0-1.229-2.881c-3.445-.322-6.95-.5-10.475-.5A114.094,114.094,0,0,0,93.717,6.968a25.038,25.038,0,0,0-4.653,7.514A28.2,28.2,0,0,0,87.049,25.2a34,34,0,0,0,.322,4.351,133.833,133.833,0,0,1,16.337,12.308,108.556,108.556,0,0,1,30.276,4.835ZM194.8,28.562A114.236,114.236,0,0,0,180.073,18.49a16.115,16.115,0,0,1,1.511,7.131A14.383,14.383,0,0,1,177.273,36.6a13.416,13.416,0,0,1-19.4-.121,14.483,14.483,0,0,1-4.351-10.918A14.806,14.806,0,0,1,164.2,10.856a113.972,113.972,0,0,0-16.558-5,27.9,27.9,0,0,0-5.237,8.3,30.6,30.6,0,0,0-2.276,11.764,27.537,27.537,0,0,0,8.058,19.822,26.187,26.187,0,0,0,19.56,8.34,25.482,25.482,0,0,0,19.378-8.44,28.443,28.443,0,0,0,7.715-17.1Z" transform="translate(66.601 3.115)" fill="#fff" opacity="0.22"/>
    <path id="Pfad_394" data-name="Pfad 394" d="M51.989,42.507a12.772,12.772,0,0,1-.443-3.928V34.873a114.4,114.4,0,0,1,19.9-18.13H74.47a7.272,7.272,0,0,0,4.472-1.672,5.7,5.7,0,0,0,2.135-4.412,136.476,136.476,0,0,1,12.368,5.9,20.854,20.854,0,0,1-.967,2.417A17.3,17.3,0,0,1,87.4,25.284a20.99,20.99,0,0,1-13.013,4.855H64.942V38.68a20.767,20.767,0,0,1-.121,2.619,6.043,6.043,0,0,1-.725,2.014c-.705,1.37-2.659,2.014-5.9,2.014S52.593,44.381,51.989,42.507Zm66.636-8.46a133.833,133.833,0,0,0-16.337-12.308,28.5,28.5,0,0,0,1.692,6.587,26.691,26.691,0,0,0,3.324,6.043c2.961-.242,6.043-.4,9-.4C117.094,33.987,117.86,34.027,118.625,34.047Z" transform="translate(51.724 10.824)" fill="#fff" opacity="0.5"/>
    <path id="Pfad_395" data-name="Pfad 395" d="M96.856,34.326h.262a24.918,24.918,0,0,0,7.453-1.209,27.778,27.778,0,0,0,5.117-2.014l2.6-1.571a11.845,11.845,0,0,0,2.377-1.793,4.412,4.412,0,0,0,.4-.5A108.777,108.777,0,0,0,84.85,22.3,133.536,133.536,0,0,1,96.856,34.326Z" transform="translate(85.519 22.632)" fill="#fff" opacity="0.55"/>
    <path id="Pfad_396" data-name="Pfad 396" d="M90.551,22.27H88.234c-3.042,0-6.043.161-9.024.4A23.945,23.945,0,0,0,81,24.848a31.162,31.162,0,0,0,7.01,5.439,30.336,30.336,0,0,0,7.574,3.183,29.027,29.027,0,0,0,6.99.947A133.532,133.532,0,0,0,90.551,22.27Z" transform="translate(79.798 22.601)" fill="#fff" opacity="0.7"/>
  </g>
</svg>
