<svg xmlns="http://www.w3.org/2000/svg" width="15.933" height="17.25" viewBox="0 0 15.933 17.25">
  <path id="button_pfeil" d="M33.272,10.324l0,0,0,0s0-.005,0-.008m5.424-.5a3.07,3.07,0,0,0-.76-1.026l-.016-.017h0L31.729,2.591h0c-1-1.025-1.693-1.1-2.438-.557a5.493,5.493,0,0,0-.654.556h0c-1.375,1.311-.965,2.121,0,3.094h0l2.446,2.444-3.711,0c-.084,0-.171-.005-.259-.006l-.536.006H26.4v0h-.008l-1.335.014h0c-1.369.008-2.232.29-2.186,2.19h0a5.476,5.476,0,0,0,.069.856c.146.908.683,1.345,2.118,1.33h0v0l1.516-.016,4.513,0h.009l-2.461,2.46h0c-.962.973-1.373,1.784,0,3.095h0a5.462,5.462,0,0,0,.654.556c.745.539,1.434.469,2.438-.556h0l6.191-6.188h0l.016-.017a3.07,3.07,0,0,0,.76-1.026l.01-.022c.015-.04.027-.079.039-.118s.016-.053.022-.08.012-.064.017-.1.009-.062.012-.094,0-.062,0-.093,0-.061,0-.093-.007-.063-.012-.094-.01-.063-.017-.1-.015-.054-.022-.08-.023-.078-.039-.118l-.01-.022" transform="translate(-22.866 -1.702)" fill="#7b0613"/>
</svg>
